<?xml version="1.0" encoding="utf-8"?>
<!-- Generator: Adobe Illustrator 24.1.1, SVG Export Plug-In . SVG Version: 6.00 Build 0)  -->
<svg version="1.1" id="Layer_1" xmlns="http://www.w3.org/2000/svg" xmlns:xlink="http://www.w3.org/1999/xlink" x="0px" y="0px"
	 viewBox="0 0 512 512" style="enable-background:new 0 0 512 512;fill:rgb(189,190,189)" xml:space="preserve">
<g>
	<path d="M256.7,377.3c-67.4,0-121.3-53.9-121.3-121.3s53.9-121.3,121.3-121.3S377.9,188.6,377.9,256S324,377.3,256.7,377.3z
		 M256.7,161.7c-52.5,0-94.3,41.8-94.3,94.3s41.8,94.3,94.3,94.3c52.6,0,94.3-41.8,94.3-94.3S309.2,161.7,256.7,161.7z"/>
	<path d="M293.1,512h-72.8l-20.2-62c-13.5-4-26.9-9.4-39.1-16.2l-59.3,29.6l-51.2-51.2L80.2,353C73.4,340.9,68,327.4,64,313.9
		L0.7,292.4v-72.8l62-20.2c4-13.5,9.4-26.9,16.2-39.1l-29.6-59.3l51.2-51.2l59.3,29.6c12.1-6.7,25.6-12.1,39.1-16.2L220.3,0h72.8
		l20.2,62c13.5,4,26.9,9.4,39.1,16.2l59.3-29.6l51.2,51.2L433.2,159c6.7,12.1,12.1,25.6,16.2,39.1l62,20.2V291l-62,20.2
		c-4,13.5-9.4,26.9-16.2,39.1l29.6,59.3l-51.2,51.2l-59.3-29.6c-12.1,6.7-25.6,12.1-39.1,16.2L293.1,512z M239.2,485.1h35l18.9-57.9
		l6.7-1.3c16.2-4,31-10.8,45.8-18.9l6.7-4l53.9,26.9l24.3-24.3l-26.9-53.9l4-6.7c8.1-13.5,14.8-29.6,18.9-45.8l1.3-6.7l57.9-18.9
		v-35l-57.9-18.9l-1.3-6.7c-4-16.2-10.8-31-18.9-45.8l-4-6.7l26.9-53.9l-24.3-24.3l-53.9,26.9l-6.7-4C330.8,97,316,90.3,299.8,86.2
		l-6.7-1.3l-18.9-57.9h-35l-18.9,57.9l-6.7,1.3c-16.2,4-31,10.8-45.8,18.9l-6.7,4l-53.9-26.9l-24.3,24.3l26.9,53.9l-4,6.7
		c-8.1,13.5-14.8,29.6-18.9,45.8l-1.3,6.7l-57.9,18.9v35l57.9,18.9l1.3,6.7c4,16.2,10.8,31,18.9,45.8l4,6.7l-26.9,53.9l24.3,24.3
		l53.9-26.9l6.7,4c14.8,8.1,29.6,14.8,45.8,18.9l6.7,1.3L239.2,485.1z"/>
</g>
</svg>
